<svg xmlns="http://www.w3.org/2000/svg" enable-background="new 0 0 32 32" viewBox="0 0 32 32"><path fill="#F5E6FE" d="M26,32H6c-3.314,0-6-2.686-6-6V6c0-3.314,2.686-6,6-6h20c3.314,0,6,2.686,6,6v20C32,29.314,29.314,32,26,32z"/><path fill="#BE63F9" d="M18.447 23.606c.935-.295 1.774-.763 2.515-1.405.73-.634 1.319-1.379 1.766-2.24.17-.328.317-.663.442-1.005l-2.171.467-1.293-1.567c-.084.224-.189.442-.319.657V18.51c-.512.871-1.231 1.49-2.15 1.89l-.034.014-.42 1.85 1.608 1.359C18.409 23.617 18.429 23.612 18.447 23.606zM15.044 12.284c.21 0 .43 0 .66.019.99.099 1.88.45 2.671 1.05.076.049.148.109.218.17l2.411-.29.876-2.324c-.376-.47-.808-.891-1.294-1.264-.772-.597-1.626-1.02-2.563-1.287-.443-.121-.89-.221-1.344-.28-.323-.041-.646-.065-.973-.075-.548-.009-1.089 0-1.64.06l1.819 2.07L15.044 12.284z"/><polygon fill="#D9A4FC" points="11.184 17.678 11.188 17.688 11.205 17.692"/><path fill="#BE63F9" d="M11.521 10.482c-.398.265-.768.569-1.112.917-.575.579-1.035 1.237-1.376 1.973l1.37-.289.84 1.019c.029-.068.059-.134.093-.2.36-.738.864-1.345 1.51-1.82l-.125-1.14-1.193-.46L11.521 10.482zM12.124 19.223c-.412-.465-.723-.976-.936-1.535l-1.463-.335-1.091 1.279c.07.25.151.5.25.75.36.901.88 1.7 1.561 2.4.404.41.85.769 1.334 1.07l-.08-1.909 1.467-.841C12.784 19.872 12.434 19.582 12.124 19.223z"/><path fill="#D9A4FC" d="M11.858 10.274l1.147.438.119 1.158.13-.08c.6-.36 1.24-.61 1.92-.74l.35-.879-.752-.849c-.694.071-1.371.229-2.025.51C12.438 9.96 12.142 10.107 11.858 10.274zM23.587 17.276c.13-.949.101-1.895-.08-2.835-.19-.948-.532-1.837-1.027-2.669-.119-.196-.243-.387-.376-.569v-.001h-.017l-.871 2.317-2.341.28c.49.523.82 1.157.97 1.9.13.626.111 1.228-.04 1.806l1.301 1.571 2.171-.466C23.417 18.176 23.517 17.732 23.587 17.276zM8.882 13.721l-.011.026c-.358.899-.536 1.832-.538 2.799 0 .579.06 1.147.189 1.703l1.061-1.254 1.481.337c-.061-.209-.11-.423-.14-.646-.13-.78-.071-1.531.19-2.253l-.824-1.006-1.401.296L8.882 13.721zM12.793 23.378c.892.381 1.824.586 2.795.617.83.029 1.645-.059 2.441-.267l-1.592-1.347.417-1.838c-.763.249-1.549.281-2.354.094-.359-.083-.697-.203-1.012-.36l-1.467.84.079 1.921C12.322 23.163 12.552 23.276 12.793 23.378z"/><polygon fill="#D9A4FC" points="11.854 10.276 11.858 10.274 11.854 10.272"/></svg>